<svg xmlns="http://www.w3.org/2000/svg" xmlns:xlink="http://www.w3.org/1999/xlink" id="Layer_1" x="0px" y="0px" viewBox="0 0 202.1 58.8" style="enable-background:new 0 0 202.1 58.8;" xml:space="preserve"><style type="text/css">	.st0{fill:#1C3664;}	.st1{fill:#CA003D;}	.st2{fill:#1B2551;}	.st3{fill:#7C8CB8;}	.st4{fill:url(#SVGID_1_);}	.st5{fill:#94A0C6;}	.st6{fill:url(#SVGID_2_);}	.st7{fill:url(#SVGID_3_);}	.st8{fill:#677BAC;}	.st9{fill:url(#SVGID_4_);}	.st10{fill:url(#SVGID_5_);}	.st11{fill:#FFFFFF;}</style><g>	<g>		<path class="st0" d="M39.8,8.5c0-0.2,0-0.4,0-0.6c0,0-0.1,0-0.1,0c0.1-0.4,0-0.8-0.3-1.1c0.1-0.4-0.3-0.9-0.7-1.3   c0,0,0-0.1,0.1-0.1c0.1-0.6-0.9-1.4-1.5-1.6c0-0.1,0-0.1,0-0.2c0-0.2,0-0.4-0.1-0.5c-0.6-0.5-1.3-1-2.1-1.4c-2.1-1-4.4-0.9-6,0.1   l-0.6,0.4l0.3,0.5C28.8,2.9,29,3,29.3,3c-0.1,0.2-0.1,0.4-0.1,0.7l0.3,0.5c0.2,0.1,0.4,0.2,0.6,0.2C30,4.5,30,4.7,30,4.9   c0,0,0,0.1,0,0.1l0.3,0.5c0,0,0,0,0,0c0.2,0.1,0.4,0.2,0.7,0.2c0,0.1-0.1,0.1-0.1,0.2c-0.1,0.2-0.1,0.4,0,0.5l0.3,0.5v0   C31.3,6.9,31.3,7,31.4,7c0.1,0,0.2,0.1,0.4,0.1c0,0,0,0,0,0c-0.1,0.2-0.1,0.4-0.1,0.7l0,0L32,8.2l0,0c0,0,0.1,0.1,0.2,0.1   c0.2,0.1,0.3,0.1,0.5,0.1c-0.1,0.2-0.1,0.4-0.1,0.7c0,0,0,0,0,0l0.3,0.5v0c0,0,0,0,0,0c0.2,0.1,0.4,0.2,0.6,0.2   c-0.1,0.2-0.1,0.4-0.1,0.7c0,0,0,0,0,0l0.3,0.5c0,0,0,0,0,0c0.2,0.2,0.4,0.2,0.6,0.2c-0.1,0.2-0.1,0.4-0.1,0.7c0,0,0,0,0,0   l0.3,0.5c0,0,0,0,0,0c0.2,0.1,0.4,0.2,0.6,0.2c-0.1,0.2-0.1,0.4-0.1,0.7c0,0,0,0,0,0l0.3,0.5c0,0,0,0,0,0c0.1,0.1,0.2,0.1,0.3,0.2   l1.2-0.7c0-0.1,0-0.1,0-0.2c0.1,0,0.1,0,0.2,0.1l2.8-1.7L39.8,8.5z M30.5,2.6c-0.1-0.1-0.3-0.1-0.5-0.1c0.1-0.1,0.1-0.3,0.1-0.5   c0.1,0.1,0.3,0.1,0.4,0.1C30.5,2.3,30.5,2.4,30.5,2.6z M31.4,3.7c0,0.1,0,0.2,0,0.3c-0.1-0.1-0.3-0.1-0.5-0.1   C30.9,3.7,31,3.6,31,3.4c0.1,0.1,0.3,0.1,0.5,0.1C31.4,3.6,31.4,3.6,31.4,3.7z M32.2,4.9c0,0.1-0.1,0.3-0.1,0.4c0,0-0.1,0-0.1-0.1   c-0.1,0-0.3-0.1-0.4-0.1c0.1-0.1,0.1-0.3,0.1-0.5c0.1,0.1,0.2,0.1,0.3,0.1C32.2,4.9,32.2,4.9,32.2,4.9C32.3,4.9,32.3,4.9,32.2,4.9   z M32.4,2.9c0-0.1,0.1-0.2,0.1-0.3c0.1,0,0.2,0.1,0.3,0.1c0,0.1,0,0.2,0,0.3c0,0-0.1,0-0.1,0C32.5,2.9,32.4,2.9,32.4,2.9z M33,6.7   c-0.2-0.1-0.3-0.1-0.5-0.1c0,0,0-0.1,0.1-0.1c0-0.1,0.1-0.2,0.1-0.3c0.1,0,0.1,0.1,0.2,0.1c0.1,0,0.2,0.1,0.3,0.1   C33.1,6.4,33,6.6,33,6.7z M33.3,4.1c0,0,0-0.1,0-0.1c0.1,0,0.2,0.1,0.3,0.1c0,0.1,0,0.2-0.1,0.3c0,0,0,0,0,0c0,0,0,0,0,0   c-0.1,0-0.2,0-0.3-0.1C33.3,4.3,33.3,4.2,33.3,4.1z M33.9,8.1C33.7,8,33.6,8,33.4,8c0,0,0,0,0,0c0.1-0.1,0.1-0.3,0.1-0.5   c0,0,0,0,0,0c0.1,0.1,0.3,0.1,0.4,0.1C33.9,7.8,33.9,7.9,33.9,8.1z M34.1,5.6c0-0.1,0-0.2,0.1-0.2c0.1,0,0.2,0.1,0.3,0.1   c0,0,0,0.1,0,0.1c0,0.1,0,0.1,0,0.2C34.3,5.7,34.2,5.7,34.1,5.6C34.1,5.7,34.1,5.6,34.1,5.6z M34.7,9.4c-0.1-0.1-0.3-0.1-0.5-0.1   c0.1-0.1,0.1-0.3,0.1-0.5C34.5,8.9,34.6,9,34.8,9C34.7,9.1,34.7,9.3,34.7,9.4z M35,6.8c0.1,0,0.1,0.1,0.2,0.1c0,0,0,0,0,0   c0,0.1,0,0.2,0,0.3C35.1,7.1,35,7,34.9,7C35,6.9,35,6.8,35,6.8z M35.6,10.8c-0.1-0.1-0.3-0.1-0.5-0.1c0.1-0.1,0.1-0.3,0.1-0.5   c0.1,0.1,0.3,0.1,0.4,0.1C35.6,10.5,35.5,10.6,35.6,10.8z M35.8,8.1C35.9,8.1,35.9,8.1,35.8,8.1C36,8.2,36,8.2,36.1,8.2   c0,0.1,0,0.2,0,0.3c-0.1,0-0.2,0-0.3-0.1C35.8,8.3,35.8,8.2,35.8,8.1z M36.4,12.2c-0.1-0.1-0.3-0.1-0.5-0.1   c0.1-0.1,0.1-0.3,0.1-0.5c0.1,0.1,0.3,0.1,0.4,0.1C36.4,11.9,36.4,12,36.4,12.2z M36.9,9.8c-0.1,0-0.2-0.1-0.3-0.1   c0-0.1,0.1-0.2,0.1-0.3c0.1,0,0.2,0.1,0.3,0.1C36.9,9.6,36.9,9.7,36.9,9.8z M37.7,11.2c-0.1,0-0.2-0.1-0.3-0.1   c0-0.1,0.1-0.2,0.1-0.3c0.1,0,0.2,0.1,0.3,0.1C37.8,11,37.7,11.1,37.7,11.2z"></path>		<path class="st0" d="M34.4,13c0.2-0.2,0.2-0.4,0.2-0.7l-0.3-0.5c-0.2-0.2-0.5-0.2-0.7-0.2c0.2-0.2,0.2-0.5,0.2-0.7l-0.3-0.5   c-0.2-0.2-0.5-0.2-0.7-0.2c0.2-0.2,0.2-0.5,0.2-0.7l-0.3-0.5c-0.2-0.2-0.5-0.2-0.7-0.2C32,8.7,32.1,8.5,32,8.2l-0.3-0.5   c-0.2-0.2-0.5-0.2-0.7-0.2c0,0,0,0,0,0c0.2-0.2,0.2-0.5,0.1-0.7l-0.3-0.5c0,0,0,0,0,0c0,0,0,0,0,0c-0.2-0.1-0.5-0.2-0.7-0.1   c0,0,0.1-0.1,0.1-0.1c0.1-0.2,0.1-0.4,0.1-0.6L30,5c0,0,0,0,0,0c0,0-0.1,0-0.1-0.1c-0.2-0.1-0.4-0.1-0.7-0.1   c0.1-0.1,0.2-0.3,0.2-0.6c0-0.1,0-0.1,0-0.2l0,0l-0.3-0.5c0,0,0,0,0,0c-0.1-0.1-0.3-0.2-0.5-0.2c-0.1,0-0.1,0-0.2,0   c0.1-0.2,0.2-0.4,0.2-0.6c0,0,0-0.1,0-0.1c0,0,0,0,0,0l-0.3-0.5L27,3.1c0.1,0.4,0.5,0.8,0.9,0.7c0,0,0.1,0,0.1,0   c-0.1,0.1-0.2,0.3-0.2,0.5c0,0.5,0.3,0.9,0.8,0.9c0.1,0,0.2,0,0.3,0c-0.1,0.1-0.1,0.1-0.1,0.2c-0.2,0.4-0.1,0.9,0.3,1.2   c0.2,0.1,0.4,0.1,0.6,0.1c0,0,0,0,0,0c-0.3,0.4-0.2,0.9,0.2,1.2c0.2,0.2,0.5,0.2,0.7,0.1c-0.3,0.3-0.3,0.8,0.1,1.1   c0.2,0.2,0.5,0.3,0.8,0.2c-0.2,0.3-0.3,0.7,0,1c0.2,0.3,0.5,0.4,0.9,0.3c-0.2,0.3-0.3,0.6-0.1,1c0.2,0.3,0.6,0.5,0.9,0.4   c-0.2,0.2-0.3,0.6-0.1,0.8c0.2,0.4,0.6,0.6,1,0.5c-0.2,0.2-0.2,0.5-0.2,0.7c0.1,0.3,0.3,0.5,0.6,0.6l1-0.6c0-0.1,0-0.2,0-0.3   l-0.3-0.5C34.9,13,34.6,13,34.4,13z"></path>	</g>	<path class="st0" d="M52.9,42.4C52.9,42.4,52.9,42.4,52.9,42.4c-0.2,0.1-0.4,0.2-0.5,0.4c-0.1-0.2-0.3-0.4-0.5-0.4h0l-0.6,0  c0,0,0,0,0,0c-0.2,0.1-0.4,0.2-0.5,0.4c-0.1-0.2-0.2-0.3-0.4-0.4c0,0-0.1,0-0.1-0.1l-0.6,0c0,0,0,0,0,0c-0.2,0.1-0.4,0.2-0.5,0.4  c0-0.1-0.1-0.1-0.1-0.2c-0.1-0.1-0.3-0.3-0.4-0.3c0,0,0,0,0,0l-0.6,0c0,0,0,0,0,0c-0.1,0-0.2,0.1-0.3,0.1c-0.1,0.1-0.2,0.2-0.2,0.3  c0,0,0,0,0,0c-0.1-0.2-0.3-0.3-0.5-0.4c0,0,0,0,0,0l-0.6,0c0,0,0,0,0,0c-0.1,0-0.1,0-0.2,0.1c-0.2,0.1-0.3,0.2-0.3,0.3  c-0.1-0.2-0.3-0.4-0.5-0.4c0,0,0,0,0,0l-0.6,0c0,0,0,0,0,0c0,0,0,0-0.1,0c-0.2,0.1-0.4,0.2-0.5,0.4c-0.1-0.2-0.3-0.4-0.5-0.4  c0,0,0,0,0,0l-0.6,0c0,0,0,0,0,0c-0.2,0.1-0.4,0.2-0.5,0.4c-0.1-0.2-0.3-0.4-0.5-0.4c0,0,0,0,0,0l-0.7,0c0,0,0,0,0,0  c-0.2,0.1-0.4,0.2-0.5,0.4c-0.1-0.2-0.3-0.4-0.5-0.4c0,0,0,0,0,0l-0.7,0c0,0,0,0,0,0c-0.1,0-0.2,0.1-0.3,0.2l0,1.4  c0,0,0.1,0.1,0.1,0.1c-0.1,0-0.1,0.1-0.1,0.1l-0.1,3.3l2.4,1.5c0.2,0.1,0.3,0.2,0.5,0.3c0,0,0,0,0.1-0.1c0.1,0.1,0.2,0.2,0.4,0.2  c0,0,0,0,0,0c0.2,0.1,0.5,0.1,0.7,0c0.3,0.3,0.9,0.3,1.4,0.1c0,0,0,0.1,0.1,0.1c0.4,0.4,1.7,0,2.2-0.4c0,0,0.1,0.1,0.1,0.1  c0.1,0.1,0.3,0.2,0.5,0.2c0.8-0.2,1.5-0.6,2.3-1c2-1.2,3.1-3.2,3.2-5.2l0-0.7L52.9,42.4z M41.1,45.7c-0.1-0.1-0.1-0.1-0.2-0.2  c0.1-0.1,0.1-0.1,0.2-0.2c0.1,0.1,0.1,0.1,0.2,0.2C41.2,45.6,41.1,45.7,41.1,45.7z M41.1,44.2c-0.1-0.1-0.2-0.2-0.3-0.3  c0.1-0.1,0.3-0.2,0.3-0.3c0.1,0.1,0.2,0.3,0.3,0.3C41.3,44,41.2,44.1,41.1,44.2z M42.7,45.8c-0.1-0.1-0.1-0.1-0.2-0.2  c0.1-0.1,0.1-0.1,0.2-0.2c0.1,0.1,0.1,0.1,0.2,0.2C42.8,45.6,42.7,45.7,42.7,45.8z M42.7,44.2c-0.1-0.1-0.2-0.2-0.3-0.3  c0.1-0.1,0.3-0.2,0.3-0.3c0.1,0.1,0.2,0.3,0.3,0.4C42.9,44,42.8,44.1,42.7,44.2z M44.4,45.7c-0.1,0-0.1,0.1-0.1,0.1  c-0.1-0.1-0.1-0.1-0.2-0.2c0.1-0.1,0.1-0.1,0.2-0.2C44.3,45.5,44.4,45.6,44.4,45.7C44.4,45.6,44.4,45.6,44.4,45.7z M44.3,44.2  C44.2,44.1,44.1,44,44,44c0.1-0.1,0.3-0.2,0.3-0.3c0.1,0.2,0.2,0.3,0.3,0.4C44.5,44,44.4,44.1,44.3,44.2z M45.9,45.8  C45.9,45.8,45.9,45.8,45.9,45.8c-0.1,0-0.2-0.1-0.2-0.1c0.1-0.1,0.1-0.1,0.2-0.2c0.1,0.1,0.1,0.1,0.2,0.2  C46,45.7,45.9,45.7,45.9,45.8z M46.2,44c-0.1,0.1-0.2,0.2-0.3,0.3c-0.1-0.1-0.2-0.2-0.3-0.3c0.1-0.1,0.3-0.2,0.3-0.3c0,0,0,0,0,0  C46,43.8,46.1,43.9,46.2,44C46.2,44,46.2,44,46.2,44z M47.5,45.8C47.4,45.8,47.4,45.8,47.5,45.8c-0.1-0.1-0.1-0.1-0.2-0.2  c0.1-0.1,0.1-0.1,0.2-0.2c0,0,0,0,0,0c0.1,0.1,0.1,0.1,0.2,0.2C47.6,45.7,47.5,45.8,47.5,45.8z M47.7,44.1  c-0.1,0.1-0.1,0.1-0.2,0.2c-0.1-0.1-0.2-0.2-0.3-0.3c0.1-0.1,0.3-0.2,0.3-0.3c0,0,0,0.1,0.1,0.1c0.1,0.1,0.2,0.2,0.3,0.2  C47.8,44,47.7,44.1,47.7,44.1z M49.1,45.9c-0.1-0.1-0.1-0.1-0.2-0.2c0,0,0,0,0,0c0,0,0,0,0,0c0.1-0.1,0.1-0.1,0.2-0.2  c0,0,0.1,0.1,0.1,0.1c0,0,0.1,0.1,0.1,0.1C49.2,45.8,49.1,45.8,49.1,45.9z M49.2,44.2c0,0-0.1,0.1-0.1,0.1c0,0,0,0,0,0  c-0.1-0.1-0.2-0.2-0.3-0.3c0,0,0.1,0,0.1-0.1c0.1-0.1,0.2-0.2,0.3-0.3c0.1,0.2,0.2,0.3,0.3,0.4C49.4,44.1,49.3,44.1,49.2,44.2z   M50.7,45.9c-0.1-0.1-0.1-0.1-0.2-0.2c0,0,0.1,0,0.1-0.1c0,0,0.1-0.1,0.1-0.1c0.1,0.1,0.1,0.2,0.2,0.2  C50.8,45.8,50.8,45.8,50.7,45.9z M50.7,44.4c0-0.1-0.1-0.1-0.1-0.2c-0.1-0.1-0.1-0.1-0.2-0.2c0.1-0.1,0.3-0.2,0.4-0.4  c0.1,0.1,0.2,0.3,0.3,0.4C50.9,44.1,50.8,44.3,50.7,44.4z M52.3,44.4c-0.1-0.1-0.2-0.2-0.3-0.3c0.1-0.1,0.3-0.2,0.3-0.3  c0.1,0.1,0.2,0.3,0.3,0.3C52.5,44.2,52.4,44.3,52.3,44.4z"></path>	<path class="st0" d="M41.1,41.7c0.1,0.2,0.2,0.4,0.5,0.5l0.7,0c0.2-0.1,0.4-0.3,0.5-0.5c0.1,0.2,0.2,0.4,0.5,0.5l0.6,0  c0.2-0.1,0.4-0.3,0.5-0.5c0.1,0.2,0.3,0.4,0.5,0.5l0.6,0c0.2-0.1,0.4-0.3,0.5-0.5c0.1,0.2,0.3,0.4,0.5,0.5l0.6,0  c0.2-0.1,0.4-0.3,0.5-0.5c0,0,0,0,0,0c0.1,0.2,0.3,0.4,0.5,0.5l0.6,0c0,0,0,0,0,0c0.2-0.1,0.4-0.3,0.5-0.5c0,0,0,0.1,0.1,0.1  c0.1,0.2,0.3,0.3,0.4,0.4l0.6,0c0,0,0,0,0,0c0,0,0.1,0,0.1-0.1c0.2-0.1,0.3-0.3,0.4-0.5c0,0.2,0.2,0.4,0.3,0.5  c0.1,0,0.1,0.1,0.2,0.1l0.6,0c0.2-0.1,0.3-0.2,0.4-0.3c0-0.1,0.1-0.1,0.1-0.2c0.1,0.2,0.2,0.4,0.4,0.5c0,0,0.1,0,0.1,0l0.6,0l0-1.6  c-0.4-0.2-0.9,0-1.1,0.4c0,0,0,0.1,0,0.1c-0.1-0.2-0.2-0.3-0.3-0.4c-0.4-0.3-0.9-0.2-1.2,0.2c-0.1,0.1-0.1,0.2-0.1,0.3  c0-0.1,0-0.1-0.1-0.2c-0.2-0.4-0.7-0.6-1.2-0.3c-0.2,0.1-0.3,0.3-0.4,0.4c0,0,0,0,0,0c-0.2-0.4-0.7-0.7-1.1-0.5  c-0.2,0.1-0.4,0.3-0.5,0.5c-0.1-0.4-0.6-0.7-1-0.6c-0.3,0.1-0.5,0.3-0.6,0.5c-0.1-0.4-0.5-0.6-0.9-0.6c-0.3,0-0.6,0.3-0.7,0.6  c-0.1-0.3-0.4-0.6-0.8-0.6c-0.4,0-0.7,0.2-0.8,0.6c-0.1-0.3-0.3-0.5-0.6-0.6c-0.4-0.1-0.8,0.2-1,0.5c-0.1-0.2-0.3-0.4-0.5-0.5  c-0.3-0.1-0.6,0-0.8,0.2l0,1.2c0.1,0.1,0.2,0.1,0.3,0.2l0.7,0C40.9,42.1,41.1,42,41.1,41.7z"></path>	<path class="st0" d="M4.8,41.9c0.2,0,0.4-0.1,0.6-0.2l0.3-0.5c0-0.2,0-0.4-0.1-0.6c0.2,0,0.4,0,0.5-0.2c0,0,0.1,0,0.1-0.1l0.3-0.5  c0,0,0,0,0,0c0-0.2,0-0.5-0.1-0.7c0.1,0,0.1,0,0.2,0C6.8,39,6.9,39,7,38.8l0.3-0.5c0-0.1,0-0.2,0-0.3c0-0.1-0.1-0.2-0.1-0.3  c0,0,0,0,0,0c0.2,0,0.4-0.1,0.6-0.2l0.3-0.5c0-0.1,0-0.1,0-0.2c0-0.2,0-0.3-0.1-0.5c0.2,0,0.4-0.1,0.6-0.2L9,35.5c0,0,0,0,0,0  c0-0.2,0-0.4-0.1-0.6c0.2,0,0.4-0.1,0.6-0.2l0.3-0.5c0-0.2,0-0.4-0.1-0.6c0.2,0,0.4-0.1,0.6-0.2l0.3-0.5c0-0.2,0-0.4-0.1-0.6  c0.2,0,0.4-0.1,0.6-0.2l0.3-0.5c0-0.1,0-0.2,0-0.3l-1.2-0.7c-0.1,0-0.1,0-0.2,0.1c0-0.1,0-0.1,0-0.2l-2.8-1.7L4.7,30  c-0.2,0.1-0.3,0.2-0.5,0.3c0,0,0,0.1,0,0.1c-0.4,0.1-0.7,0.4-0.8,0.8c-0.4,0.1-0.7,0.7-0.8,1.2c0,0-0.1,0-0.1,0  c-0.6,0.2-0.8,1.5-0.7,2.1c-0.1,0-0.1,0-0.2,0c-0.2,0.1-0.3,0.2-0.4,0.3C1.1,35.7,1,36.5,1,37.4c0.1,2.3,1.2,4.3,3,5.3L4.6,43  l0.3-0.5C5,42.3,4.9,42.1,4.8,41.9z M9.6,31.2c0,0.2,0,0.3,0.1,0.5c-0.2,0-0.3,0-0.5,0.1c0-0.2,0-0.3-0.1-0.4  C9.3,31.4,9.4,31.3,9.6,31.2z M8.8,32.6c0,0.2,0,0.3,0.1,0.5c-0.2,0-0.3,0-0.5,0.1c0-0.2,0-0.3-0.1-0.4C8.5,32.7,8.6,32.7,8.8,32.6  z M8.1,30.5c0,0.1,0,0.2,0.1,0.3c-0.1,0-0.2,0-0.3,0.1c0-0.1,0-0.2-0.1-0.3C7.9,30.6,8,30.6,8.1,30.5z M8,34c0,0.2,0,0.3,0.1,0.5  c-0.2,0-0.3,0-0.5,0.1c0-0.2,0-0.3-0.1-0.4C7.7,34.1,7.8,34.1,8,34z M7.3,31.9c0,0.1,0,0.2,0.1,0.3c-0.1,0-0.2,0-0.3,0.1  c0-0.1,0-0.2,0-0.3C7.1,32,7.2,31.9,7.3,31.9z M7.2,35.4c0,0.2,0,0.3,0.1,0.5c0,0,0,0,0,0c-0.2,0-0.3,0-0.5,0.1c0,0,0,0,0,0  c0-0.1,0-0.3-0.1-0.4C6.9,35.5,7,35.5,7.2,35.4z M3,39.2C3,39.1,3,39,3,38.9c0.1,0,0.2-0.1,0.3-0.1c0,0,0,0.1,0,0.1  c0,0.1,0,0.1,0.1,0.2C3.2,39.1,3.1,39.2,3,39.2z M3.6,41.5c0-0.1,0-0.3-0.1-0.4c0.1,0,0.3-0.1,0.4-0.1c0,0.2,0,0.3,0.1,0.5  C3.9,41.4,3.7,41.5,3.6,41.5z M3.9,37.7c0,0-0.1,0-0.1,0.1c0-0.1,0-0.2-0.1-0.3c0.1,0,0.2,0,0.3-0.1c0,0,0,0,0,0c0,0,0,0,0,0  c0,0.1,0,0.2,0.1,0.3C4.1,37.7,4,37.7,3.9,37.7z M6.4,33.3c0,0.1,0,0.2,0.1,0.3c-0.1,0-0.2,0-0.3,0.1c0,0,0,0,0-0.1  c0-0.1,0-0.1,0-0.2C6.3,33.4,6.4,33.3,6.4,33.3z M6.3,36.8c0,0.2,0,0.3,0.1,0.5c0,0-0.1,0-0.1,0c-0.1,0-0.2,0.1-0.3,0.1  c0-0.1,0-0.1,0-0.2c0-0.1,0-0.2-0.1-0.3C6.1,36.9,6.2,36.8,6.3,36.8z M5.6,34.7c0,0.1,0,0.2,0.1,0.3c-0.1,0-0.2,0-0.3,0.1  c0-0.1,0-0.1,0-0.2c0,0,0,0,0,0C5.5,34.7,5.6,34.7,5.6,34.7z M5.2,38.3c0.1,0,0.3-0.1,0.4-0.1c0,0,0,0.1,0,0.1  c0,0.1,0.1,0.3,0.1,0.4c-0.2,0-0.3,0-0.5,0.1c0-0.1,0-0.2,0-0.3C5.2,38.4,5.1,38.3,5.2,38.3C5.1,38.3,5.1,38.3,5.2,38.3z M4.7,36.1  c0.1,0,0.1,0,0.2-0.1c0,0.1,0,0.2,0.1,0.3c0,0,0,0,0,0c-0.1,0-0.2,0-0.2,0.1C4.6,36.3,4.6,36.2,4.7,36.1  C4.6,36.1,4.6,36.1,4.7,36.1z M4.3,39.7c0.1,0,0.1,0,0.2,0c0.1,0,0.2-0.1,0.2-0.1c0,0.2,0,0.3,0.1,0.5c-0.2,0-0.3,0-0.5,0.1  C4.4,40,4.3,39.8,4.3,39.7z"></path>	<path class="st0" d="M12.5,32.7c0.2-0.2,0.3-0.5,0.3-0.8l-1.1-0.6c-0.1,0-0.2,0.1-0.3,0.2c0,0,0,0,0,0l-0.3,0.5c0,0,0,0,0,0  c0,0.2,0,0.5,0.2,0.7c-0.2,0-0.5,0-0.7,0.2c0,0,0,0,0,0l-0.3,0.5c0,0,0,0,0,0c0,0.2,0,0.5,0.2,0.7c-0.2,0-0.5,0-0.7,0.2  c0,0,0,0,0,0l-0.3,0.5c0,0,0,0,0,0c0,0.2,0,0.5,0.2,0.7c-0.3,0-0.5,0-0.7,0.2c0,0,0,0,0,0l-0.3,0.5c0,0,0,0,0,0  c0,0.3,0,0.5,0.2,0.7c-0.3,0-0.5,0-0.7,0.2c0,0,0,0,0,0l-0.3,0.5c0,0,0,0,0,0c0,0.3,0,0.5,0.2,0.7c0,0,0,0,0,0  c-0.2,0-0.5,0-0.7,0.2c0,0,0,0,0,0L7,38.8c0,0,0,0,0,0c0,0,0,0,0,0c0,0.3,0,0.5,0.2,0.7c-0.1,0-0.1,0-0.2,0c-0.2,0-0.4,0.1-0.6,0.2  l-0.3,0.5c0,0,0,0,0,0c0,0,0,0.1,0,0.1c0,0.2,0.1,0.5,0.2,0.6c-0.2-0.1-0.4,0-0.6,0.1c-0.1,0-0.1,0.1-0.2,0.1c0,0,0,0,0,0l-0.3,0.5  c0,0,0,0,0,0c0,0.2,0,0.4,0.1,0.5c0,0.1,0.1,0.1,0.1,0.2c-0.2,0-0.4,0-0.6,0.1c0,0,0,0-0.1,0.1c0,0,0,0,0,0L4.6,43L6,43.8  c0.4-0.3,0.4-0.8,0.2-1.1c0,0,0-0.1-0.1-0.1c0.2,0,0.4,0,0.5-0.1c0.4-0.2,0.6-0.7,0.4-1.1c0-0.1-0.1-0.2-0.2-0.2c0.1,0,0.1,0,0.2,0  c0.5,0,0.9-0.4,0.9-0.9c0-0.2-0.1-0.4-0.2-0.5c0,0,0,0,0,0c0.5,0.1,0.9-0.3,1-0.7c0-0.3,0-0.5-0.2-0.7c0.4,0.1,0.9-0.2,1-0.6  c0.1-0.3,0-0.6-0.2-0.8c0.4,0.1,0.8-0.1,0.9-0.5c0.1-0.3,0.1-0.7-0.1-0.9c0.3,0.1,0.7-0.1,0.9-0.4c0.2-0.3,0.2-0.7-0.1-1  c0.3,0.1,0.6,0,0.8-0.3c0.3-0.3,0.3-0.8,0-1.1C12,33,12.3,32.9,12.5,32.7z"></path>	<g>		<g>			<path class="st1" d="M92,48.4l0.8,0c0.6,0,1.3,0,1.8-0.1c0.6-0.1,1.1-0.2,1.5-0.5c0.4-0.2,0.7-0.7,1.1-1.5    c0.3-0.7,0.5-1.2,0.4-1.4l-8.9-22.9h7.1l5.3,16.1l5-16.1h6.7l-8.3,21.5c-1.6,4.2-2.9,6.8-3.8,7.8c-1,1-2.9,1.5-5.7,1.5    c-0.6,0-1,0-1.4,0c-0.3,0-0.9,0-1.6-0.1V48.4z"></path>			<path class="st1" d="M60.1,14.5h7.2l13.1,20.6V14.5h6.4v29.5h-6.8l-13.4-21v21h-6.4V14.5z"></path>			<path class="st1" d="M120.9,44.1h-6.3V14.6h6.3V44.1z"></path>			<path class="st1" d="M140.5,22.7c1.7,0.7,3.1,1.8,4.2,3.2c1,1.3,1.6,2.8,1.9,4.5c0.2,1,0.2,2.4,0.2,4.3h-17.6    c0.1,2.2,0.9,3.8,2.5,4.7c1,0.6,2.1,0.8,3.5,0.8c1.4,0,2.6-0.3,3.5-1c0.5-0.4,0.9-0.9,1.3-1.5h6.4c-0.2,1.3-0.9,2.6-2.3,3.9    c-2.2,2.1-5.2,3.2-9.1,3.2c-3.2,0-6-0.9-8.5-2.7c-2.5-1.8-3.7-4.7-3.7-8.7c0-3.8,1.1-6.7,3.3-8.7c2.2-2,5.1-3,8.6-3    C136.9,21.6,138.8,22,140.5,22.7z M131,27.7c-0.9,0.8-1.5,1.9-1.7,3.3h11c-0.1-1.5-0.7-2.6-1.7-3.4c-1-0.8-2.3-1.2-3.8-1.2    C133.2,26.4,131.9,26.8,131,27.7z"></path>			<path class="st1" d="M168.4,23.4c1.6,1.2,2.4,3.2,2.4,5.9v14.8h-6.6V30.8c0-1.2-0.2-2-0.5-2.7c-0.6-1.1-1.8-1.7-3.5-1.7    c-2.1,0-3.6,0.8-4.3,2.5c-0.4,0.9-0.6,2-0.6,3.3v11.9h-6.4V22.2h6.2v3.2c0.8-1.1,1.6-2,2.3-2.4c1.3-0.9,2.9-1.3,4.9-1.3    C164.8,21.6,166.8,22.2,168.4,23.4z"></path>			<path class="st1" d="M190.6,22.7c1.7,0.7,3.1,1.8,4.2,3.2c1,1.3,1.6,2.8,1.9,4.5c0.2,1,0.2,2.4,0.2,4.3h-17.6    c0.1,2.2,1,3.8,2.5,4.7c1,0.6,2.1,0.8,3.5,0.8c1.4,0,2.6-0.3,3.5-1c0.5-0.4,0.9-0.9,1.3-1.5h6.4c-0.2,1.3-1,2.6-2.3,3.9    c-2.2,2.1-5.2,3.2-9.1,3.2c-3.2,0-6-0.9-8.5-2.7c-2.5-1.8-3.7-4.7-3.7-8.7c0-3.8,1.1-6.7,3.3-8.7c2.2-2,5.1-3,8.6-3    C187,21.6,188.9,22,190.6,22.7z M181,27.7c-0.9,0.8-1.5,1.9-1.7,3.3h11c-0.1-1.5-0.7-2.6-1.7-3.4c-1-0.8-2.3-1.2-3.8-1.2    C183.2,26.4,182,26.8,181,27.7z"></path>		</g>		<g>			<g>				<path class="st2" d="M198.6,21.4c0.4,0,0.8,0.1,1.2,0.3c0.4,0.2,0.7,0.5,0.9,0.9c0.2,0.4,0.3,0.8,0.3,1.3c0,0.4-0.1,0.9-0.3,1.3     c-0.2,0.4-0.5,0.7-0.9,1c-0.4,0.2-0.8,0.3-1.2,0.3c-0.4,0-0.8-0.1-1.2-0.3c-0.4-0.2-0.7-0.5-0.9-1c-0.2-0.4-0.3-0.8-0.3-1.3     c0-0.4,0.1-0.9,0.3-1.3c0.2-0.4,0.5-0.7,0.9-0.9C197.8,21.5,198.2,21.4,198.6,21.4z M198.6,21.8c-0.3,0-0.7,0.1-1,0.3     c-0.3,0.2-0.6,0.4-0.8,0.8c-0.2,0.3-0.3,0.7-0.3,1.1c0,0.4,0.1,0.7,0.3,1.1c0.2,0.3,0.4,0.6,0.7,0.8c0.3,0.2,0.7,0.3,1,0.3     c0.3,0,0.7-0.1,1-0.3c0.3-0.2,0.6-0.5,0.7-0.8c0.2-0.3,0.3-0.7,0.3-1.1c0-0.4-0.1-0.7-0.3-1.1c-0.2-0.3-0.4-0.6-0.8-0.8     C199.3,21.9,199,21.8,198.6,21.8z M197.6,25.4v-2.8h0.9c0.3,0,0.5,0,0.7,0.1c0.1,0.1,0.2,0.1,0.3,0.3c0.1,0.1,0.1,0.3,0.1,0.4     c0,0.2-0.1,0.4-0.2,0.5c-0.1,0.1-0.3,0.2-0.5,0.3c0.1,0,0.2,0.1,0.2,0.1c0.1,0.1,0.2,0.3,0.4,0.6l0.3,0.5h-0.5L199,25     c-0.2-0.3-0.3-0.6-0.4-0.6c-0.1-0.1-0.2-0.1-0.3-0.1H198v1.2H197.6z M198,23.9h0.5c0.2,0,0.4,0,0.5-0.1c0.1-0.1,0.1-0.2,0.1-0.3     c0-0.1,0-0.2-0.1-0.2c0-0.1-0.1-0.1-0.2-0.1c-0.1,0-0.2,0-0.4,0H198V23.9z"></path>			</g>		</g>	</g>	<path class="st0" d="M10,23.5c-3.3-2-4.4-6.3-2.5-9.6c0.3-0.6,0.7-1,1.2-1.5c-1.6,0.9-3.3,1.8-4.8,2.8c-1.7,1.2-3,2.8-2.9,5.3  l0,17.2c0.5-2.4,1.4-6.1,3.4-7.3c1.9-1.2,11-6.2,11-6.2C13.6,24.8,11.7,24.5,10,23.5z"></path>	<path class="st0" d="M43,16.1c3.3-2,7.6-1,9.6,2.4c0.3,0.6,0.6,1.1,0.7,1.7c-0.1-1.9,0-3.8-0.2-5.5c-0.3-2.1-1-3.9-3.3-5L34.7,1.6  c1.9,1.6,4.7,4.1,4.8,6.4c0.1,2.2,0.3,12.6,0.3,12.6C40.2,18.8,41.3,17.2,43,16.1z"></path>	<path class="st0" d="M33.8,47.3c-0.1,3.9-3.3,6.9-7.2,6.8c-0.6,0-1.3-0.1-1.9-0.3c1.6,1,3.2,2,4.8,2.8c1.9,0.9,3.9,1.2,6-0.1  l15-8.4c-2.4,0.7-6,1.7-8,0.6c-1.9-1.1-10.8-6.6-10.8-6.6C33.1,43.5,33.9,45.3,33.8,47.3z"></path>	<path class="st3" d="M49.3,38.4c0.1,0.4,0.5,0.6,0.9,0.5c0.4-0.1,0.6-0.5,0.5-0.9c0-0.2-0.1-0.3-0.2-0.4c-0.4,0.2-0.8,0.4-1.2,0.5  C49.3,38.3,49.3,38.4,49.3,38.4z"></path>	<linearGradient id="SVGID_1_" gradientUnits="userSpaceOnUse" x1="45.3876" y1="33.6739" x2="44.6452" y2="47.439">		<stop offset="0" style="stop-color:#FFFFFF"></stop>		<stop offset="1" style="stop-color:#003E7E"></stop>	</linearGradient>	<path class="st4" d="M45.1,38.9c0.3,0.1,0.5,0,0.7-0.2c-0.4,0-0.8-0.1-1.2-0.2C44.6,38.7,44.8,38.9,45.1,38.9z"></path>	<path class="st3" d="M52.7,37.8c-0.3,0.3-0.3,0.8,0,1c0.2,0.2,0.6,0.2,0.8,0.1l0-1.3C53.3,37.5,52.9,37.6,52.7,37.8z"></path>	<path class="st5" d="M52.1,37.2c0.2-0.2,0.3-0.5,0.2-0.8c-0.3,0.3-0.6,0.6-1,0.8C51.5,37.3,51.9,37.3,52.1,37.2z"></path>	<path class="st5" d="M52.8,36.2c-0.3,0.3-0.2,0.7,0,1c0.2,0.2,0.5,0.2,0.8,0.1l0-1.2C53.3,35.9,53,36,52.8,36.2z"></path>	<linearGradient id="SVGID_2_" gradientUnits="userSpaceOnUse" x1="48.6884" y1="33.8606" x2="47.9469" y2="47.6078">		<stop offset="0" style="stop-color:#FFFFFF"></stop>		<stop offset="1" style="stop-color:#003E7E"></stop>	</linearGradient>	<path class="st6" d="M48.5,39c0.4,0,0.6-0.3,0.7-0.7c-0.4,0.1-0.9,0.3-1.3,0.3C47.9,38.8,48.2,39,48.5,39z"></path>	<path class="st5" d="M53.1,35.6c0.2,0.1,0.4,0.1,0.6,0c0,0,0,0,0,0l0-0.8C53.5,35,53.3,35.3,53.1,35.6z"></path>	<linearGradient id="SVGID_3_" gradientUnits="userSpaceOnUse" x1="47.0672" y1="33.7838" x2="46.3274" y2="47.5004">		<stop offset="0" style="stop-color:#FFFFFF"></stop>		<stop offset="1" style="stop-color:#003E7E"></stop>	</linearGradient>	<path class="st7" d="M46.3,38.7c0.1,0.1,0.3,0.2,0.5,0.2c0.2,0,0.5-0.1,0.6-0.3C47,38.7,46.6,38.7,46.3,38.7z"></path>	<path class="st3" d="M42.9,37.9c-0.1,0.4,0.1,0.8,0.5,0.9c0.4,0.1,0.8-0.1,0.9-0.4C43.8,38.3,43.4,38.1,42.9,37.9  C42.9,37.9,42.9,37.9,42.9,37.9z"></path>	<path class="st5" d="M40.2,35.8c-0.1,0-0.2,0.1-0.3,0.2l0,0.8c0,0.1,0.1,0.1,0.2,0.2c0.3,0.2,0.7,0.1,0.9-0.2  c0-0.1,0.1-0.1,0.1-0.2C40.8,36.4,40.5,36.1,40.2,35.8z"></path>	<path class="st3" d="M41.3,37.8c-0.2,0.4,0,0.8,0.3,1c0.4,0.2,0.8,0,1-0.3c0.1-0.2,0.1-0.5-0.1-0.7c-0.2-0.1-0.4-0.2-0.5-0.3  C41.8,37.4,41.5,37.5,41.3,37.8z"></path>	<path class="st8" d="M41.8,40.6c0.4,0.1,0.8-0.2,0.9-0.6c0.1-0.4-0.2-0.8-0.6-0.9c-0.4-0.1-0.8,0.2-0.9,0.6  C41.1,40.1,41.4,40.5,41.8,40.6z"></path>	<path class="st8" d="M45.2,40.6c0.4,0,0.8-0.4,0.7-0.9c0-0.4-0.4-0.8-0.9-0.7c-0.4,0-0.8,0.4-0.7,0.8  C44.4,40.4,44.8,40.7,45.2,40.6z"></path>	<path class="st8" d="M46.9,40.6c0.4-0.1,0.7-0.5,0.6-0.9c-0.1-0.4-0.5-0.7-0.9-0.6c-0.4,0.1-0.7,0.5-0.6,0.9  C46.1,40.5,46.5,40.7,46.9,40.6z"></path>	<path class="st3" d="M41,38.5c0.2-0.3,0.2-0.8-0.2-1c-0.3-0.2-0.7-0.2-1,0.1l0,0.9c0,0.1,0.1,0.1,0.2,0.1  C40.3,38.9,40.8,38.8,41,38.5z"></path>	<path class="st8" d="M39.8,40.3c0.1,0.1,0.2,0.2,0.3,0.2c0.4,0.1,0.9-0.1,1-0.5c0.1-0.4-0.1-0.9-0.5-1c-0.3-0.1-0.6,0-0.8,0.2  L39.8,40.3z"></path>	<path class="st8" d="M43.5,40.6c0.4,0,0.8-0.3,0.8-0.7c0-0.4-0.3-0.8-0.7-0.8c-0.4,0-0.8,0.3-0.8,0.7  C42.8,40.2,43.1,40.6,43.5,40.6z"></path>	<path class="st8" d="M48.6,40.6c0.4-0.2,0.6-0.6,0.5-1c-0.2-0.4-0.6-0.6-1-0.5c-0.4,0.2-0.6,0.6-0.5,1  C47.8,40.6,48.2,40.8,48.6,40.6z"></path>	<path class="st8" d="M52.5,39.6c-0.2,0.4,0,0.9,0.3,1.1c0.2,0.1,0.5,0.1,0.7,0l0-1.4C53.2,39.1,52.7,39.2,52.5,39.6z"></path>	<path class="st8" d="M51.1,40.6c0.4,0.2,0.8,0.2,1.1-0.2c0.3-0.4,0.2-0.8-0.2-1.1c-0.4-0.3-0.8-0.2-1.1,0.2  C50.7,39.9,50.8,40.4,51.1,40.6z"></path>	<path class="st3" d="M52.1,38.9c0.3-0.3,0.4-0.7,0.1-1c-0.3-0.3-0.7-0.4-1-0.1c-0.3,0.3-0.4,0.7-0.1,1  C51.3,39.1,51.8,39.1,52.1,38.9z"></path>	<path class="st8" d="M50.6,40.5c0.3-0.3,0.3-0.8,0-1.1c-0.3-0.3-0.8-0.3-1.1,0c-0.3,0.3-0.3,0.8,0,1.1  C49.8,40.8,50.3,40.8,50.6,40.5z"></path>	<path class="st5" d="M11.2,45.9c-0.3,0-0.6,0.3-0.6,0.6c0,0,0,0,0,0l0.9,0.5c0.1,0,0.2-0.1,0.2-0.2c0,0,0-0.1,0-0.1  C11.5,46.5,11.3,46.2,11.2,45.9z"></path>	<path class="st3" d="M10.1,40.4c-0.2,0.4,0,0.8,0.4,1c0,0,0.1,0,0.1,0c0.1-0.5,0.2-0.9,0.3-1.4C10.6,39.9,10.2,40.1,10.1,40.4z"></path>	<linearGradient id="SVGID_4_" gradientUnits="userSpaceOnUse" x1="14.4386" y1="48.9144" x2="-0.4532" y2="39.5963">		<stop offset="0" style="stop-color:#FFFFFF"></stop>		<stop offset="1" style="stop-color:#003E7E"></stop>	</linearGradient>	<path class="st9" d="M12.1,47.4L12.1,47.4C12.1,47.4,12.1,47.4,12.1,47.4C12.1,47.4,12.1,47.4,12.1,47.4z"></path>	<path class="st5" d="M10.5,43.6c-0.4,0.1-0.6,0.4-0.5,0.8c0.1,0.4,0.4,0.6,0.8,0.5c0,0,0.1,0,0.1,0C10.7,44.5,10.6,44.1,10.5,43.6  C10.5,43.6,10.5,43.6,10.5,43.6z"></path>	<path class="st5" d="M9.6,45c-0.3,0.1-0.5,0.4-0.5,0.6l1,0.6c0.3-0.2,0.4-0.5,0.3-0.8C10.3,45.1,9.9,44.9,9.6,45z"></path>	<path class="st8" d="M7.6,43.6c-0.2-0.4-0.7-0.5-1.1-0.2c-0.2,0.1-0.3,0.3-0.3,0.6l1.2,0.7C7.7,44.4,7.8,43.9,7.6,43.6z"></path>	<path class="st3" d="M8.1,44.2c-0.3,0.1-0.5,0.4-0.5,0.7l1.1,0.7C9,45.3,9.1,44.9,9,44.6C8.9,44.2,8.5,44,8.1,44.2z"></path>	<path class="st3" d="M13.7,36c-0.3-0.2-0.7-0.2-1,0c-0.3,0.3-0.3,0.7-0.1,1C12.9,36.6,13.3,36.3,13.7,36z"></path>	<path class="st3" d="M14.7,35.3c0-0.2,0-0.4-0.1-0.6c-0.2-0.3-0.7-0.4-1-0.2c-0.3,0.2-0.4,0.7-0.2,1c0.1,0.2,0.3,0.3,0.4,0.3  c0.2-0.2,0.4-0.3,0.6-0.4C14.6,35.4,14.6,35.3,14.7,35.3z"></path>	<path class="st3" d="M11,38.9c-0.2,0.3-0.1,0.6,0,0.8c0.1-0.4,0.3-0.8,0.5-1.1C11.3,38.6,11.1,38.7,11,38.9z"></path>	<path class="st5" d="M16.9,34.3l-0.7-0.4c-0.1,0-0.2,0-0.2,0.1c-0.3,0.2-0.5,0.5-0.3,0.8C16,34.7,16.5,34.5,16.9,34.3  C16.9,34.4,16.9,34.4,16.9,34.3z"></path>	<path class="st3" d="M11.8,37.4c-0.2,0.2-0.2,0.5-0.1,0.7c0.2-0.3,0.5-0.7,0.7-1C12.2,37.2,12,37.2,11.8,37.4z"></path>	<path class="st8" d="M11.7,37.4c0.2-0.4,0-0.9-0.4-1c-0.4-0.2-0.9,0-1,0.4c-0.2,0.4,0,0.9,0.4,1C11,38,11.5,37.8,11.7,37.4z"></path>	<path class="st8" d="M10.1,39.9c0.1-0.4-0.2-0.8-0.7-0.9C9,39,8.6,39.3,8.6,39.7c-0.1,0.4,0.2,0.8,0.7,0.9  C9.7,40.7,10.1,40.4,10.1,39.9z"></path>	<path class="st3" d="M10.5,41.6c-0.1-0.1-0.2-0.2-0.4-0.2c-0.4-0.1-0.8,0.1-0.9,0.5c-0.1,0.4,0.1,0.8,0.5,0.9  c0.3,0.1,0.5,0,0.7-0.2C10.5,42.2,10.5,41.9,10.5,41.6z"></path>	<path class="st8" d="M10.9,38.7c0.1-0.4-0.1-0.9-0.5-1c-0.4-0.1-0.9,0.1-1,0.5c-0.1,0.4,0.1,0.9,0.5,1  C10.3,39.3,10.8,39.1,10.9,38.7z"></path>	<path class="st8" d="M7.4,41.9C7,42.1,6.8,42.6,7,43c0.2,0.4,0.7,0.6,1.1,0.4c0.4-0.2,0.6-0.7,0.4-1.1C8.2,41.9,7.8,41.7,7.4,41.9z  "></path>	<path class="st3" d="M9.3,44.2c0.4-0.1,0.7-0.4,0.6-0.8c-0.1-0.4-0.4-0.7-0.8-0.6c-0.4,0.1-0.7,0.4-0.6,0.8  C8.5,44,8.9,44.2,9.3,44.2z"></path>	<path class="st8" d="M12.8,33.4c0.3,0.3,0.8,0.4,1.1,0.1c0.2-0.2,0.3-0.5,0.2-0.8l-0.9-0.5c-0.1,0-0.3,0.1-0.4,0.2  C12.5,32.6,12.5,33.1,12.8,33.4z"></path>	<path class="st8" d="M9.3,41c-0.1-0.4-0.6-0.6-1-0.5c-0.4,0.1-0.6,0.6-0.5,1c0.1,0.4,0.6,0.6,1,0.5C9.2,41.9,9.4,41.4,9.3,41z"></path>	<path class="st8" d="M12.4,36.1c0.2-0.4,0.1-0.9-0.2-1.1c-0.4-0.2-0.9-0.1-1.1,0.2c-0.2,0.4-0.1,0.9,0.2,1.1  C11.7,36.6,12.2,36.5,12.4,36.1z"></path>	<path class="st3" d="M14.1,34.1c0.2,0.4,0.6,0.5,1,0.3c0.3-0.2,0.5-0.6,0.4-0.9L14.7,33c-0.1,0-0.1,0-0.2,0.1  C14.1,33.3,14,33.7,14.1,34.1z"></path>	<path class="st8" d="M13.2,34.8c0.3-0.3,0.2-0.8-0.1-1.1c-0.3-0.3-0.8-0.2-1.1,0.1c-0.3,0.3-0.2,0.8,0.1,1.1  C12.4,35.2,12.9,35.1,13.2,34.8z"></path>	<path class="st5" d="M28.7,10.8C28.7,10.8,28.7,10.8,28.7,10.8c0.4-0.2,0.5-0.7,0.3-1c-0.2-0.4-0.6-0.5-1-0.3c0,0,0,0,0,0  c0.1,0.1,0.2,0.3,0.3,0.4C28.4,10.2,28.6,10.5,28.7,10.8z"></path>	<path class="st5" d="M30.3,15.8c-0.4,0-0.7,0.3-0.7,0.6c0,0.4,0.3,0.7,0.6,0.7l0.7-0.4c0-0.1,0-0.2,0.1-0.2  C31,16.1,30.7,15.8,30.3,15.8z"></path>	<path class="st5" d="M31.7,14.9c-0.4,0-0.7,0.3-0.8,0.7c0,0.4,0.3,0.7,0.6,0.7l0.8-0.5c0-0.1,0-0.1,0-0.2  C32.5,15.2,32.1,14.9,31.7,14.9z"></path>	<path class="st5" d="M23.4,6.2c0.4,0.1,0.7-0.2,0.8-0.5c0.1-0.3-0.1-0.6-0.4-0.7l-1,0.6C22.9,5.9,23.1,6.2,23.4,6.2z"></path>	<path class="st5" d="M26,5.3c-0.4-0.1-0.8,0.1-0.9,0.5c-0.1,0.4,0.1,0.8,0.5,0.9c0.4,0.1,0.8-0.1,0.9-0.5C26.6,5.9,26.4,5.5,26,5.3  z"></path>	<path class="st5" d="M24.8,5.4c0.4,0.1,0.8-0.2,0.8-0.6c0.1-0.3-0.1-0.6-0.3-0.8l-1.1,0.7C24.3,5,24.5,5.3,24.8,5.4z"></path>	<linearGradient id="SVGID_5_" gradientUnits="userSpaceOnUse" x1="22.3386" y1="6.0672" x2="32.8395" y2="0.7303">		<stop offset="0" style="stop-color:#FFFFFF"></stop>		<stop offset="1" style="stop-color:#003E7E"></stop>	</linearGradient>	<path class="st10" d="M22.4,5.9C22.4,5.9,22.4,5.9,22.4,5.9L22.1,6c0.2,0,0.4,0,0.5,0.1C22.6,6,22.5,5.9,22.4,5.9z"></path>	<path class="st5" d="M28,9.4c0.3-0.2,0.4-0.7,0.1-1c-0.2-0.3-0.7-0.4-1-0.1c0,0-0.1,0.1-0.1,0.1C27.3,8.6,27.6,9,28,9.4  C27.9,9.4,27.9,9.4,28,9.4z"></path>	<path class="st5" d="M27.2,7.9c0.3-0.3,0.3-0.8,0-1c-0.3-0.3-0.8-0.3-1,0c-0.1,0.1-0.2,0.3-0.2,0.5c0.3,0.2,0.6,0.4,0.8,0.7  C26.9,8.1,27.1,8.1,27.2,7.9z"></path>	<path class="st5" d="M29.5,12.2c0.4-0.1,0.6-0.6,0.4-0.9c-0.1-0.4-0.6-0.6-0.9-0.4c-0.1,0-0.1,0.1-0.2,0.1c0.2,0.4,0.3,0.9,0.4,1.3  C29.3,12.2,29.4,12.2,29.5,12.2z"></path>	<path class="st5" d="M28.7,17.9c0.1,0,0.1,0,0.2,0l0.5-0.3c0,0,0-0.1,0-0.1c0.1-0.3-0.1-0.7-0.4-0.8c0,0,0,0,0,0  c-0.1,0.4-0.3,0.8-0.5,1.1C28.6,17.9,28.6,17.9,28.7,17.9z"></path>	<path class="st5" d="M29.5,15.8c0.4,0,0.6-0.4,0.6-0.7c0-0.4-0.3-0.6-0.7-0.6c0,0.4-0.1,0.9-0.1,1.3C29.4,15.8,29.4,15.8,29.5,15.8  z"></path>	<path class="st5" d="M24.6,6.3c-0.2-0.1-0.5,0-0.7,0.2c0.4,0.1,0.8,0.3,1.1,0.5C25.1,6.6,24.9,6.4,24.6,6.3z"></path>	<path class="st8" d="M27.3,4.4c-0.4,0-0.8,0.3-0.8,0.8c0,0.4,0.3,0.8,0.8,0.8C27.6,6,28,5.6,28,5.2C28,4.8,27.7,4.4,27.3,4.4z"></path>	<path class="st8" d="M32.6,14.1c0.4-0.2,0.6-0.6,0.4-1c-0.2-0.4-0.6-0.6-1-0.4c-0.4,0.2-0.6,0.6-0.4,1  C31.7,14.1,32.2,14.3,32.6,14.1z"></path>	<path class="st5" d="M30.8,13.5c-0.4,0-0.7,0.4-0.7,0.8c0,0.4,0.4,0.7,0.8,0.7c0.4,0,0.7-0.4,0.6-0.8  C31.6,13.8,31.2,13.5,30.8,13.5z"></path>	<path class="st5" d="M30.2,13.6c0.4-0.1,0.6-0.5,0.5-0.9c-0.1-0.4-0.5-0.6-0.9-0.5c-0.3,0.1-0.5,0.3-0.5,0.6c0,0.1,0,0.3,0.1,0.4  C29.5,13.5,29.9,13.7,30.2,13.6z"></path>	<path class="st8" d="M26.5,4.6c0.4,0,0.7-0.4,0.7-0.9c0-0.2-0.2-0.4-0.3-0.6l-1.2,0.7C25.7,4.3,26,4.6,26.5,4.6z"></path>	<path class="st8" d="M32.9,14c-0.4,0.1-0.7,0.5-0.6,1c0.1,0.3,0.3,0.5,0.6,0.6l0.9-0.6c0-0.1,0-0.3,0-0.4  C33.8,14.1,33.4,13.9,32.9,14z"></path>	<path class="st8" d="M28.2,5.7c-0.4-0.1-0.8,0.2-0.9,0.6c-0.1,0.4,0.2,0.8,0.6,0.9c0.4,0.1,0.8-0.2,0.9-0.6  C28.9,6.2,28.6,5.8,28.2,5.7z"></path>	<path class="st8" d="M31.1,11.3c-0.4,0.2-0.5,0.7-0.3,1.1c0.2,0.4,0.7,0.5,1.1,0.3c0.4-0.2,0.5-0.7,0.3-1.1  C31.9,11.2,31.4,11.1,31.1,11.3z"></path>	<path class="st8" d="M29.2,8.7c-0.3,0.3-0.3,0.8,0,1.1c0.3,0.3,0.8,0.3,1.1,0c0.3-0.3,0.3-0.8,0-1.1C30,8.4,29.5,8.4,29.2,8.7z"></path>	<path class="st8" d="M29.4,7.3C29,7,28.6,7.1,28.3,7.5c-0.3,0.3-0.2,0.8,0.2,1.1c0.3,0.3,0.8,0.2,1.1-0.2C29.8,8,29.7,7.5,29.4,7.3  z"></path>	<path class="st8" d="M30.1,10c-0.3,0.3-0.4,0.8-0.1,1.1c0.3,0.3,0.8,0.4,1.1,0.1c0.3-0.3,0.4-0.8,0.1-1.1C31,9.8,30.5,9.8,30.1,10z  "></path>	<g>		<g>			<path class="st11" d="M41.6,25.6c-1.7-2.7-0.8-6.3,2-8c2.8-1.7,6.3-0.8,8,1.9c1.7,2.7,0.8,6.3-2,8C46.8,29.2,43.2,28.4,41.6,25.6    z"></path>			<path class="st0" d="M41.2,25.8L41.2,25.8c-0.6-1-0.9-2.1-0.9-3.2l0,0c0-2.1,1.1-4.2,3-5.3l0,0c1-0.6,2.1-0.9,3.2-0.9l0,0    c2.1,0,4.1,1.1,5.3,3l0,0c0.6,1,0.9,2.1,0.9,3.2l0,0c0,2.1-1.1,4.2-3,5.3l0,0c-1,0.6-2.1,0.9-3.2,0.9l0,0    C44.4,28.8,42.4,27.7,41.2,25.8L41.2,25.8z M46.5,28c1,0,1.9-0.3,2.8-0.8l0,0c1.7-1,2.6-2.8,2.6-4.7l0,0c0-1-0.3-1.9-0.8-2.8l0,0    c-1-1.7-2.8-2.6-4.6-2.6l0,0c-1,0-1.9,0.3-2.8,0.8l0,0c-1.7,1-2.6,2.8-2.6,4.7l0,0c0,1,0.3,1.9,0.8,2.8l0,0l-0.3,0.2l0.3-0.2    C42.9,27.1,44.7,28,46.5,28L46.5,28z"></path>		</g>		<g>			<path class="st11" d="M41.6,34.1c-1.7-2.7-0.8-6.3,2-8c2.8-1.7,6.3-0.8,8,1.9c1.7,2.7,0.8,6.3-2,8C46.8,37.7,43.2,36.9,41.6,34.1    z"></path>			<path class="st0" d="M46.5,37.3c-2.1,0-4.1-1.1-5.3-3l0,0l0.3-0.2l0.3-0.2c1,1.7,2.8,2.6,4.6,2.6l0,0c1,0,1.9-0.3,2.8-0.8l0,0    c1.7-1,2.6-2.8,2.6-4.7l0,0c0-1-0.3-1.9-0.8-2.8l0,0c-1-1.7-2.8-2.6-4.6-2.6l0,0c-1,0-1.9,0.3-2.8,0.8l0,0    c-1.7,1-2.6,2.8-2.6,4.7l0,0c0,1,0.3,1.9,0.8,2.8l0,0l-0.3,0.2l-0.3,0.2c-0.6-1-0.9-2.1-0.9-3.2l0,0c0-2.1,1.1-4.2,3-5.3l0,0    c1-0.6,2.1-0.9,3.2-0.9l0,0c2.1,0,4.1,1.1,5.3,3l0,0c0.6,1,0.9,2.1,0.9,3.2l0,0c0,2.1-1.1,4.2-3,5.3l0,0    C48.8,37,47.6,37.3,46.5,37.3L46.5,37.3C46.5,37.3,46.5,37.3,46.5,37.3L46.5,37.3z"></path>		</g>	</g>	<g>		<g>			<path class="st11" d="M25.4,40.6c3.2-0.1,5.9,2.4,6,5.6c0.1,3.2-2.4,5.9-5.6,6.1c-3.2,0.1-5.9-2.4-6-5.6    C19.7,43.4,22.2,40.7,25.4,40.6z"></path>			<path class="st0" d="M19.4,46.6c0-0.1,0-0.2,0-0.2l0,0c0-3.3,2.6-6.1,6-6.2l0,0c0.1,0,0.2,0,0.2,0l0,0c3.3,0,6.1,2.6,6.2,6l0,0    c0,0.1,0,0.2,0,0.2l0,0c0,3.3-2.6,6.1-6,6.2l0,0c-0.1,0-0.2,0-0.2,0l0,0C22.3,52.6,19.5,50,19.4,46.6L19.4,46.6z M25.4,40.9    c-2.9,0.1-5.2,2.5-5.2,5.4l0,0c0,0.1,0,0.1,0,0.2l0,0c0.1,2.9,2.5,5.3,5.4,5.3l0,0c0.1,0,0.1,0,0.2,0l0,0    c2.9-0.1,5.2-2.5,5.2-5.4l0,0c0-0.1,0-0.1,0-0.2l0,0c-0.1-2.9-2.5-5.2-5.4-5.2l0,0C25.5,40.9,25.5,40.9,25.4,40.9L25.4,40.9    l0-0.4L25.4,40.9L25.4,40.9z"></path>		</g>		<g>			<path class="st11" d="M18,36.4c3.2-0.1,5.9,2.4,6,5.6c0.1,3.2-2.4,5.9-5.6,6.1c-3.2,0.1-5.9-2.4-6-5.6    C12.3,39.2,14.8,36.5,18,36.4z"></path>			<path class="st0" d="M12,42.5c0-0.1,0-0.2,0-0.2l0,0c0-3.3,2.6-6.1,6-6.2l0,0c0.1,0,0.2,0,0.2,0l0,0c3.3,0,6.1,2.6,6.2,6l0,0    c0,0.1,0,0.2,0,0.2l0,0c0,3.3-2.6,6.1-6,6.2l0,0c-0.1,0-0.2,0-0.2,0l0,0C14.9,48.5,12.1,45.8,12,42.5L12,42.5z M12.8,42.2    c0,0.1,0,0.1,0,0.2l0,0c0.1,2.9,2.5,5.3,5.4,5.3l0,0c0.1,0,0.1,0,0.2,0l0,0c2.9-0.1,5.2-2.5,5.2-5.4l0,0c0-0.1,0-0.1,0-0.2l0,0    c-0.1-2.9-2.5-5.2-5.4-5.2l0,0c-0.1,0-0.1,0-0.2,0l0,0C15.1,36.9,12.8,39.3,12.8,42.2L12.8,42.2z"></path>		</g>	</g>	<g>		<path class="st11" d="M9.4,14c1.8-2.6,5.4-3.3,8.1-1.5c2.7,1.8,3.3,5.5,1.5,8.1c-1.8,2.6-5.4,3.3-8.1,1.5   C8.3,20.3,7.6,16.7,9.4,14z"></path>		<path class="st0" d="M10.7,22.4C8.9,21.2,8,19.3,8,17.3l0,0c0-1.2,0.4-2.4,1.1-3.5l0,0v0c1.2-1.7,3.1-2.7,5.1-2.7l0,0   c1.2,0,2.5,0.4,3.5,1.1l0,0c1.8,1.2,2.7,3.2,2.7,5.2l0,0c0,1.2-0.4,2.4-1.1,3.5l0,0c-1.2,1.7-3.1,2.7-5.1,2.7l0,0   C13,23.5,11.8,23.2,10.7,22.4L10.7,22.4z M9.7,14.2c-0.6,0.9-0.9,2-0.9,3.1l0,0c0,1.7,0.8,3.4,2.4,4.5l0,0c0.9,0.7,2,1,3.1,1l0,0   c1.7,0,3.4-0.8,4.5-2.3l0,0c0.6-0.9,0.9-2,0.9-3.1l0,0c0-1.7-0.8-3.4-2.4-4.5l0,0c-0.9-0.7-2-1-3.1-1l0,0   C12.4,11.9,10.8,12.7,9.7,14.2L9.7,14.2L9.4,14L9.7,14.2L9.7,14.2z"></path>	</g>	<g>		<path class="st1" d="M17.1,10.5c1.8-2.6,5.4-3.3,8.1-1.5c2.7,1.8,3.3,5.5,1.5,8.1c-1.8,2.6-5.4,3.3-8.1,1.5   C16,16.8,15.3,13.2,17.1,10.5z"></path>		<path class="st0" d="M22,20c-1.2,0-2.5-0.4-3.5-1.1l0,0c-1.8-1.2-2.7-3.2-2.7-5.1l0,0c0-1.2,0.4-2.4,1.1-3.5l0,0   c1.2-1.7,3.1-2.7,5.1-2.7l0,0c1.2,0,2.4,0.4,3.5,1.1l0,0c1.8,1.2,2.7,3.2,2.7,5.2l0,0c0,1.2-0.4,2.4-1.1,3.5l0,0   C25.9,19.1,23.9,20,22,20L22,20C22,20,22,20,22,20L22,20z M16.5,13.8c0,1.7,0.8,3.4,2.4,4.5l0,0c0.9,0.6,2,1,3.1,1l0,0   c1.7,0,3.4-0.8,4.5-2.3l0,0c0.6-0.9,0.9-2,0.9-3.1l0,0c0-1.7-0.8-3.4-2.4-4.5l0,0c-0.9-0.6-2-1-3.1-1l0,0c-1.7,0-3.4,0.8-4.5,2.3   l0,0C16.8,11.7,16.5,12.7,16.5,13.8L16.5,13.8z"></path>	</g></g></svg>